<?xml version="1.0" encoding="UTF-8" standalone="no"?>
<!-- Generated by graphviz version 7.1.0 (0)
 -->

<!-- Pages: 1 -->

<svg
   width="757.27301pt"
   height="368.14563pt"
   viewBox="0 0 757.27301 368.14563"
   version="1.1"
   id="svg8198"
   sodipodi:docname="aaa3.svg"
   inkscape:version="1.2.2 (b0a8486541, 2022-12-01)"
   xmlns:inkscape="http://www.inkscape.org/namespaces/inkscape"
   xmlns:sodipodi="http://sodipodi.sourceforge.net/DTD/sodipodi-0.dtd"
   xmlns="http://www.w3.org/2000/svg"
   xmlns:svg="http://www.w3.org/2000/svg">
  <defs
     id="defs8202" />
  <sodipodi:namedview
     id="namedview8200"
     pagecolor="#ffffff"
     bordercolor="#000000"
     borderopacity="0.25"
     inkscape:showpageshadow="2"
     inkscape:pageopacity="0.0"
     inkscape:pagecheckerboard="0"
     inkscape:deskcolor="#d1d1d1"
     inkscape:document-units="pt"
     showgrid="false"
     inkscape:zoom="1.100364"
     inkscape:cx="455.75826"
     inkscape:cy="243.55576"
     inkscape:window-width="1920"
     inkscape:window-height="1131"
     inkscape:window-x="0"
     inkscape:window-y="0"
     inkscape:window-maximized="1"
     inkscape:current-layer="svg8198" />
  <rect
     style="fill:#00007f;fill-opacity:0.25231;stroke:#0000ff;stroke-width:2;stroke-opacity:1"
     id="rect8260-7"
     width="376.63873"
     height="217.74295"
     x="379.63428"
     y="149.39607" />
  <rect
     style="fill:#007f00;fill-opacity:0.246582;stroke:#00ff00;stroke-width:2;stroke-opacity:1"
     id="rect8260"
     width="376.63873"
     height="217.74295"
     x="1"
     y="149.40266" />
  <rect
     style="fill:#7f0000;fill-opacity:0.246582;stroke:#ea0000;stroke-width:2;stroke-opacity:1"
     id="rect8260-5"
     width="376.63873"
     height="217.74295"
     x="190.96829"
     y="1" />
  <g
     id="fs"
     class="layer"
     transform="translate(1.770179,17.222907)">
    <g
       id="graph0"
       class="graph"
       transform="translate(4,328)">
      <!-- folder -->
      <g
         id="node1"
         class="node">
        <title
           id="title7972">folder</title>
        <path
           fill="#eeeeee"
           stroke="#000000"
           d="m 447,-324 c 0,0 -149,0 -149,0 -6,0 -12,6 -12,12 0,0 0,12 0,12 0,6 6,12 12,12 0,0 149,0 149,0 6,0 12,-6 12,-12 0,0 0,-12 0,-12 0,-6 -6,-12 -12,-12"
           id="path7974" />
        <text
           text-anchor="middle"
           x="372.5"
           y="-309.79999"
           font-family="sans-serif"
           font-size="14px"
           fill="#000000"
           id="text7976">nie:DataObject</text>
        <text
           text-anchor="middle"
           x="372.5"
           y="-294.79999"
           font-family="sans-serif"
           font-size="14px"
           fill="#000000"
           id="text7978">file:///folder</text>
      </g>
      <!-- folder_ie -->
      <g
         id="node2"
         class="node">
        <title
           id="title7981">folder_ie</title>
        <path
           fill="#eeeeee"
           stroke="#000000"
           d="m 447,-252 c 0,0 -149,0 -149,0 -6,0 -12,6 -12,12 0,0 0,12 0,12 0,6 6,12 12,12 0,0 149,0 149,0 6,0 12,-6 12,-12 0,0 0,-12 0,-12 0,-6 -6,-12 -12,-12"
           id="path7983" />
        <text
           text-anchor="middle"
           x="372.5"
           y="-230.3"
           font-family="sans-serif"
           font-size="14px"
           fill="#000000"
           id="text7985">nfo:Folder</text>
      </g>
      <!-- folder&#45;&gt;folder_ie -->
      <g
         id="edge1"
         class="edge">
        <title
           id="title7988">folder-&gt;folder_ie</title>
        <path
           fill="none"
           stroke="#000000"
           d="m 372.5,-276.24 c 0,4.23 0,8.58 0,12.8"
           id="path7990" />
        <polygon
           fill="#000000"
           stroke="#000000"
           points="372.5,-286.18 376,-276.18 369,-276.18 "
           id="polygon7992" />
        <polygon
           fill="#000000"
           stroke="#000000"
           points="372.5,-253.62 369,-263.62 376,-263.62 "
           id="polygon7994" />
      </g>
      <!-- file1 -->
      <g
         id="node3"
         class="node">
        <title
           id="title7997">file1</title>
        <path
           fill="#eeeeee"
           stroke="#000000"
           d="m 352,-180 c 0,0 -149,0 -149,0 -6,0 -12,6 -12,12 0,0 0,12 0,12 0,6 6,12 12,12 0,0 149,0 149,0 6,0 12,-6 12,-12 0,0 0,-12 0,-12 0,-6 -6,-12 -12,-12"
           id="path7999" />
        <text
           text-anchor="middle"
           x="277.5"
           y="-165.8"
           font-family="sans-serif"
           font-size="14px"
           fill="#000000"
           id="text8001">nie:DataObject</text>
        <text
           text-anchor="middle"
           x="277.5"
           y="-150.8"
           font-family="sans-serif"
           font-size="14px"
           fill="#000000"
           id="text8003">file:///folder/a.mp3</text>
      </g>
      <!-- folder_ie&#45;&gt;file1 -->
      <g
         id="edge2"
         class="edge">
        <title
           id="title8006">folder_ie-&gt;file1</title>
        <path
           fill="none"
           stroke="#000000"
           d="m 340.04,-209.08 c -12.8,9.43 -27.23,20.06 -39,28.73"
           id="path8008" />
        <polygon
           fill="#000000"
           stroke="#000000"
           points="347.8,-214.8 341.82,-206.05 337.67,-211.68 "
           id="polygon8010" />
      </g>
      <!-- file2 -->
      <g
         id="node5"
         class="node">
        <title
           id="title8013">file2</title>
        <path
           fill="#eeeeee"
           stroke="#000000"
           d="m 543,-180 c 0,0 -149,0 -149,0 -6,0 -12,6 -12,12 0,0 0,12 0,12 0,6 6,12 12,12 0,0 149,0 149,0 6,0 12,-6 12,-12 0,0 0,-12 0,-12 0,-6 -6,-12 -12,-12"
           id="path8015" />
        <text
           text-anchor="middle"
           x="468.5"
           y="-165.8"
           font-family="sans-serif"
           font-size="14px"
           fill="#000000"
           id="text8017">nie:DataObject</text>
        <text
           text-anchor="middle"
           x="468.5"
           y="-150.8"
           font-family="sans-serif"
           font-size="14px"
           fill="#000000"
           id="text8019">file:///folder/b.mpg</text>
      </g>
      <!-- folder_ie&#45;&gt;file2 -->
      <g
         id="edge3"
         class="edge">
        <title
           id="title8022">folder_ie-&gt;file2</title>
        <path
           fill="none"
           stroke="#000000"
           d="m 405.3,-209.08 c 12.94,9.43 27.52,20.06 39.41,28.73"
           id="path8024" />
        <polygon
           fill="#000000"
           stroke="#000000"
           points="397.45,-214.8 407.6,-211.74 403.47,-206.09 "
           id="polygon8026" />
      </g>
      <!-- file1&#45;&gt;file1_ie -->
      <g
         id="edge4"
         class="edge">
        <title
           id="title8029">file1-&gt;file1_ie</title>
        <path
           fill="none"
           stroke="#000000"
           d="m 277.5,-132.24 c 0,4.23 0,8.58 0,12.8"
           id="path8031" />
        <polygon
           fill="#000000"
           stroke="#000000"
           points="277.5,-142.18 281,-132.18 274,-132.18 "
           id="polygon8033" />
        <polygon
           fill="#000000"
           stroke="#000000"
           points="277.5,-109.62 274,-119.62 281,-119.62 "
           id="polygon8035" />
      </g>
      <!-- file2&#45;&gt;file2_ie -->
      <g
         id="edge5"
         class="edge">
        <title
           id="title8038">file2-&gt;file2_ie</title>
        <path
           fill="none"
           stroke="#000000"
           d="m 468.5,-132.24 c 0,4.23 0,8.58 0,12.8"
           id="path8040" />
        <polygon
           fill="#000000"
           stroke="#000000"
           points="468.5,-142.18 472,-132.18 465,-132.18 "
           id="polygon8042" />
        <polygon
           fill="#000000"
           stroke="#000000"
           points="468.5,-109.62 465,-119.62 472,-119.62 "
           id="polygon8044" />
      </g>
    </g>
  </g>
  <g
     id="audio"
     class="layer"
     transform="translate(1.770179,17.222907)">
    <g
       id="audio_graph0"
       class="graph"
       transform="translate(4,328)">
      <!-- file1 -->
      <g
         id="audio_node3_audio"
         class="node">
        <title
           id="title8049">file1</title>
        <path
           fill="#eeeeee"
           stroke="#000000"
           d="m 352,-180 c 0,0 -149,0 -149,0 -6,0 -12,6 -12,12 0,0 0,12 0,12 0,6 6,12 12,12 0,0 149,0 149,0 6,0 12,-6 12,-12 0,0 0,-12 0,-12 0,-6 -6,-12 -12,-12"
           id="path8051" />
        <text
           text-anchor="middle"
           x="277.5"
           y="-165.8"
           font-family="sans-serif"
           font-size="14px"
           fill="#000000"
           id="text8053">nie:DataObject</text>
        <text
           text-anchor="middle"
           x="277.5"
           y="-150.8"
           font-family="sans-serif"
           font-size="14px"
           fill="#000000"
           id="text8055">file:///folder/a.mp3</text>
      </g>
      <!-- folder_ie&#45;&gt;file1 -->
      <g
         id="audio_edge2"
         class="edge">
        <title
           id="title8058">folder_ie-&gt;file1</title>
        <path
           fill="none"
           stroke="#000000"
           d="m 340.04,-209.08 c -12.8,9.43 -27.23,20.06 -39,28.73"
           id="path8060" />
        <polygon
           fill="#000000"
           stroke="#000000"
           points="347.8,-214.8 341.82,-206.05 337.67,-211.68 "
           id="polygon8062" />
      </g>
      <!-- file2 -->
      <g
         id="audio_node5_audio"
         class="node">
        <title
           id="title8065">file2</title>
        <path
           fill="#eeeeee"
           stroke="#000000"
           d="m 543,-180 c 0,0 -149,0 -149,0 -6,0 -12,6 -12,12 0,0 0,12 0,12 0,6 6,12 12,12 0,0 149,0 149,0 6,0 12,-6 12,-12 0,0 0,-12 0,-12 0,-6 -6,-12 -12,-12"
           id="path8067" />
        <text
           text-anchor="middle"
           x="468.5"
           y="-165.8"
           font-family="sans-serif"
           font-size="14px"
           fill="#000000"
           id="text8069">nie:DataObject</text>
        <text
           text-anchor="middle"
           x="468.5"
           y="-150.8"
           font-family="sans-serif"
           font-size="14px"
           fill="#000000"
           id="text8071">file:///folder/b.mpg</text>
      </g>
      <!-- folder_ie&#45;&gt;file2 -->
      <g
         id="audio_edge3"
         class="edge">
        <title
           id="title8074">folder_ie-&gt;file2</title>
        <path
           fill="none"
           stroke="#000000"
           d="m 405.3,-209.08 c 12.94,9.43 27.52,20.06 39.41,28.73"
           id="path8076" />
        <polygon
           fill="#000000"
           stroke="#000000"
           points="397.45,-214.8 407.6,-211.74 403.47,-206.09 "
           id="polygon8078" />
      </g>
      <!-- file1_ie -->
      <g
         id="audio_node4_audio"
         class="node">
        <title
           id="title8081">file1_ie</title>
        <path
           fill="#eeeeee"
           stroke="#000000"
           d="m 352,-108 c 0,0 -149,0 -149,0 -6,0 -12,6 -12,12 0,0 0,12 0,12 0,6 6,12 12,12 0,0 149,0 149,0 6,0 12,-6 12,-12 0,0 0,-12 0,-12 0,-6 -6,-12 -12,-12"
           id="path8083" />
        <text
           text-anchor="middle"
           x="277.5"
           y="-86.300003"
           font-family="sans-serif"
           font-size="14px"
           fill="#000000"
           id="text8085">nmm:MusicPiece</text>
      </g>
      <!-- file1&#45;&gt;file1_ie -->
      <g
         id="audio_edge4"
         class="edge">
        <title
           id="title8088">file1-&gt;file1_ie</title>
        <path
           fill="none"
           stroke="#000000"
           d="m 277.5,-132.24 c 0,4.23 0,8.58 0,12.8"
           id="path8090" />
        <polygon
           fill="#000000"
           stroke="#000000"
           points="277.5,-142.18 281,-132.18 274,-132.18 "
           id="polygon8092" />
        <polygon
           fill="#000000"
           stroke="#000000"
           points="277.5,-109.62 274,-119.62 281,-119.62 "
           id="polygon8094" />
      </g>
      <!-- a1 -->
      <g
         id="audio_node7_audio"
         class="node">
        <title
           id="title8097">a1</title>
        <path
           fill="#eeeeee"
           stroke="#000000"
           d="m 161,-36 c 0,0 -149,0 -149,0 -6,0 -12,6 -12,12 0,0 0,12 0,12 0,6 6,12 12,12 0,0 149,0 149,0 6,0 12,-6 12,-12 0,0 0,-12 0,-12 0,-6 -6,-12 -12,-12"
           id="path8099" />
        <text
           text-anchor="middle"
           x="86.5"
           y="-14.3"
           font-family="sans-serif"
           font-size="14px"
           fill="#000000"
           id="text8101">nmm:MusicAlbum</text>
      </g>
      <!-- file1_ie&#45;&gt;a1 -->
      <g
         id="audio_edge6"
         class="edge">
        <title
           id="title8104">file1_ie-&gt;a1</title>
        <path
           fill="none"
           stroke="#000000"
           d="m 229.8,-71.52 c -25.85,9.48 -58,21.26 -85.29,31.26"
           id="path8106" />
        <polygon
           fill="#000000"
           stroke="#000000"
           points="135.35,-36.9 143.53,-43.63 145.94,-37.06 "
           id="polygon8108" />
      </g>
      <!-- a2 -->
      <g
         id="audio_node8_audio"
         class="node">
        <title
           id="title8111">a2</title>
        <path
           fill="#eeeeee"
           stroke="#000000"
           d="m 352,-36 c 0,0 -149,0 -149,0 -6,0 -12,6 -12,12 0,0 0,12 0,12 0,6 6,12 12,12 0,0 149,0 149,0 6,0 12,-6 12,-12 0,0 0,-12 0,-12 0,-6 -6,-12 -12,-12"
           id="path8113" />
        <text
           text-anchor="middle"
           x="277.5"
           y="-14.3"
           font-family="sans-serif"
           font-size="14px"
           fill="#000000"
           id="text8115">nmm:Artist</text>
      </g>
      <!-- file1_ie&#45;&gt;a2 -->
      <g
         id="audio_edge7"
         class="edge">
        <title
           id="title8118">file1_ie-&gt;a2</title>
        <path
           fill="none"
           stroke="#000000"
           d="m 277.5,-71.7 c 0,7.29 0,15.97 0,24.16"
           id="path8120" />
        <polygon
           fill="#000000"
           stroke="#000000"
           points="277.5,-37.62 274,-47.62 281,-47.62 "
           id="polygon8122" />
      </g>
      <!-- file2&#45;&gt;file2_ie -->
      <g
         id="audio_edge5"
         class="edge">
        <title
           id="title8125">file2-&gt;file2_ie</title>
        <path
           fill="none"
           stroke="#000000"
           d="m 468.5,-132.24 c 0,4.23 0,8.58 0,12.8"
           id="path8127" />
        <polygon
           fill="#000000"
           stroke="#000000"
           points="468.5,-142.18 472,-132.18 465,-132.18 "
           id="polygon8129" />
        <polygon
           fill="#000000"
           stroke="#000000"
           points="468.5,-109.62 465,-119.62 472,-119.62 "
           id="polygon8131" />
      </g>
    </g>
  </g>
  <g
     id="video"
     class="layer"
     transform="translate(1.770179,17.222907)">
    <g
       id="video_graph0"
       class="graph"
       transform="translate(4,328)">
      <!-- file2 -->
      <g
         id="video_node5_video"
         class="node">
        <title
           id="title8136">file2</title>
        <path
           fill="#eeeeee"
           stroke="#000000"
           d="m 543,-180 c 0,0 -149,0 -149,0 -6,0 -12,6 -12,12 0,0 0,12 0,12 0,6 6,12 12,12 0,0 149,0 149,0 6,0 12,-6 12,-12 0,0 0,-12 0,-12 0,-6 -6,-12 -12,-12"
           id="path8138" />
        <text
           text-anchor="middle"
           x="468.5"
           y="-165.8"
           font-family="sans-serif"
           font-size="14px"
           fill="#000000"
           id="text8140">nie:DataObject</text>
        <text
           text-anchor="middle"
           x="468.5"
           y="-150.8"
           font-family="sans-serif"
           font-size="14px"
           fill="#000000"
           id="text8142">file:///folder/b.mpg</text>
      </g>
      <!-- folder_ie&#45;&gt;file2 -->
      <g
         id="video_edge3"
         class="edge">
        <title
           id="title8145">folder_ie-&gt;file2</title>
        <path
           fill="none"
           stroke="#000000"
           d="m 405.3,-209.08 c 12.94,9.43 27.52,20.06 39.41,28.73"
           id="path8147" />
        <polygon
           fill="#000000"
           stroke="#000000"
           points="397.45,-214.8 407.6,-211.74 403.47,-206.09 "
           id="polygon8149" />
      </g>
      <!-- file2_ie -->
      <g
         id="video_node6_video"
         class="node">
        <title
           id="title8152">file2_ie</title>
        <path
           fill="#eeeeee"
           stroke="#000000"
           d="m 543,-108 c 0,0 -149,0 -149,0 -6,0 -12,6 -12,12 0,0 0,12 0,12 0,6 6,12 12,12 0,0 149,0 149,0 6,0 12,-6 12,-12 0,0 0,-12 0,-12 0,-6 -6,-12 -12,-12"
           id="path8154" />
        <text
           text-anchor="middle"
           x="468.5"
           y="-86.300003"
           font-family="sans-serif"
           font-size="14px"
           fill="#000000"
           id="text8156">nmm:Video</text>
      </g>
      <!-- file2&#45;&gt;file2_ie -->
      <g
         id="video_edge5"
         class="edge">
        <title
           id="title8159">file2-&gt;file2_ie</title>
        <path
           fill="none"
           stroke="#000000"
           d="m 468.5,-132.24 c 0,4.23 0,8.58 0,12.8"
           id="path8161" />
        <polygon
           fill="#000000"
           stroke="#000000"
           points="468.5,-142.18 472,-132.18 465,-132.18 "
           id="polygon8163" />
        <polygon
           fill="#000000"
           stroke="#000000"
           points="468.5,-109.62 465,-119.62 472,-119.62 "
           id="polygon8165" />
      </g>
      <!-- b1 -->
      <g
         id="video_node9_video"
         class="node">
        <title
           id="title8168">b1</title>
        <path
           fill="#eeeeee"
           stroke="#000000"
           d="m 543,-36 c 0,0 -149,0 -149,0 -6,0 -12,6 -12,12 0,0 0,12 0,12 0,6 6,12 12,12 0,0 149,0 149,0 6,0 12,-6 12,-12 0,0 0,-12 0,-12 0,-6 -6,-12 -12,-12"
           id="path8170" />
        <text
           text-anchor="middle"
           x="468.5"
           y="-14.3"
           font-family="sans-serif"
           font-size="14px"
           fill="#000000"
           id="text8172">nmm:Artist</text>
      </g>
      <!-- file2_ie&#45;&gt;b1 -->
      <g
         id="video_edge8"
         class="edge">
        <title
           id="title8175">file2_ie-&gt;b1</title>
        <path
           fill="none"
           stroke="#000000"
           d="m 468.5,-71.7 c 0,7.29 0,15.97 0,24.16"
           id="path8177" />
        <polygon
           fill="#000000"
           stroke="#000000"
           points="468.5,-37.62 465,-47.62 472,-47.62 "
           id="polygon8179" />
      </g>
      <!-- b2 -->
      <g
         id="video_node10_video"
         class="node">
        <title
           id="title8182">b2</title>
        <path
           fill="#eeeeee"
           stroke="#000000"
           d="m 734,-36 c 0,0 -149,0 -149,0 -6,0 -12,6 -12,12 0,0 0,12 0,12 0,6 6,12 12,12 0,0 149,0 149,0 6,0 12,-6 12,-12 0,0 0,-12 0,-12 0,-6 -6,-12 -12,-12"
           id="path8184" />
        <text
           text-anchor="middle"
           x="659.5"
           y="-14.3"
           font-family="sans-serif"
           font-size="14px"
           fill="#000000"
           id="text8186">nmm:SynchronizedText</text>
      </g>
      <!-- file2_ie&#45;&gt;b2 -->
      <g
         id="video_edge9"
         class="edge">
        <title
           id="title8189">file2_ie-&gt;b2</title>
        <path
           fill="none"
           stroke="#000000"
           d="m 516.2,-71.52 c 25.85,9.48 58,21.26 85.29,31.26"
           id="path8191" />
        <polygon
           fill="#000000"
           stroke="#000000"
           points="610.65,-36.9 600.06,-37.06 602.47,-43.63 "
           id="polygon8193" />
      </g>
    </g>
  </g>
  <text
     xml:space="preserve"
     style="font-style:normal;font-variant:normal;font-weight:normal;font-stretch:normal;font-size:10px;font-family:sans-serif;-inkscape-font-specification:'sans-serif, Normal';font-variant-ligatures:normal;font-variant-caps:normal;font-variant-numeric:normal;font-variant-east-asian:normal;fill:#000000;fill-opacity:1;stroke:none;stroke-width:2;stroke-opacity:1"
     x="198.09549"
     y="16.709051"
     id="text11121"><tspan
       sodipodi:role="line"
       id="tspan11119"
       style="font-style:normal;font-variant:normal;font-weight:normal;font-stretch:normal;font-size:10px;font-family:sans-serif;-inkscape-font-specification:'sans-serif, Normal';font-variant-ligatures:normal;font-variant-caps:normal;font-variant-numeric:normal;font-variant-east-asian:normal;fill:#000000;fill-opacity:1;stroke:none;stroke-width:2"
       x="198.09549"
       y="16.709051">tracker:FileSystem</tspan></text>
  <text
     xml:space="preserve"
     style="font-style:normal;font-variant:normal;font-weight:normal;font-stretch:normal;font-size:10px;font-family:sans-serif;-inkscape-font-specification:'sans-serif, Normal';font-variant-ligatures:normal;font-variant-caps:normal;font-variant-numeric:normal;font-variant-east-asian:normal;fill:#000000;fill-opacity:1;stroke:none;stroke-width:2;stroke-opacity:1"
     x="8.0988722"
     y="165.80745"
     id="text13827"><tspan
       sodipodi:role="line"
       id="tspan13825"
       style="font-style:normal;font-variant:normal;font-weight:normal;font-stretch:normal;font-size:10px;font-family:sans-serif;-inkscape-font-specification:'sans-serif, Normal';font-variant-ligatures:normal;font-variant-caps:normal;font-variant-numeric:normal;font-variant-east-asian:normal;stroke-width:2"
       x="8.0988722"
       y="165.80745">tracker:Audio</tspan></text>
  <text
     xml:space="preserve"
     style="font-style:normal;font-variant:normal;font-weight:normal;font-stretch:normal;font-size:10px;font-family:sans-serif;-inkscape-font-specification:'sans-serif, Normal';font-variant-ligatures:normal;font-variant-caps:normal;font-variant-numeric:normal;font-variant-east-asian:normal;fill:#000000;fill-opacity:1;stroke:none;stroke-width:2;stroke-opacity:1"
     x="688.5014"
     y="164.604"
     id="text13831"><tspan
       sodipodi:role="line"
       id="tspan13829"
       style="font-style:normal;font-variant:normal;font-weight:normal;font-stretch:normal;font-size:10px;font-family:sans-serif;-inkscape-font-specification:'sans-serif, Normal';font-variant-ligatures:normal;font-variant-caps:normal;font-variant-numeric:normal;font-variant-east-asian:normal;stroke-width:2"
       x="688.5014"
       y="164.604">tracker:Video</tspan></text>
</svg>
